<?xml version="1.0" encoding="UTF-8" standalone="no"?>
<!-- Created with Inkscape (http://www.inkscape.org/) -->

<svg
   xmlns:dc="http://purl.org/dc/elements/1.1/"
   xmlns:cc="http://creativecommons.org/ns#"
   xmlns:rdf="http://www.w3.org/1999/02/22-rdf-syntax-ns#"
   xmlns:svg="http://www.w3.org/2000/svg"
   xmlns="http://www.w3.org/2000/svg"
   xmlns:xlink="http://www.w3.org/1999/xlink"
   xmlns:sodipodi="http://sodipodi.sourceforge.net/DTD/sodipodi-0.dtd"
   xmlns:inkscape="http://www.inkscape.org/namespaces/inkscape"
   width="48"
   height="48"
   id="svg2"
   version="1.1"
   inkscape:version="0.48.2 r9819"
   inkscape:export-filename="/home/kostas/Desktop/css/img/x.png"
   inkscape:export-xdpi="90"
   inkscape:export-ydpi="90"
   sodipodi:docname="New document 1">
  <defs
     id="defs4">
    <linearGradient
       inkscape:collect="always"
       id="linearGradient4096">
      <stop
         style="stop-color:#ffffff;stop-opacity:1;"
         offset="0"
         id="stop4098" />
      <stop
         style="stop-color:#ffffff;stop-opacity:0;"
         offset="1"
         id="stop4100" />
    </linearGradient>
    <linearGradient
       id="linearGradient4058">
      <stop
         style="stop-color:#333333;stop-opacity:1;"
         offset="0"
         id="stop4060" />
      <stop
         style="stop-color:#000000;stop-opacity:1;"
         offset="1"
         id="stop4062" />
    </linearGradient>
    <linearGradient
       id="linearGradient3927">
      <stop
         style="stop-color:#cccccc;stop-opacity:1;"
         offset="0"
         id="stop3929" />
      <stop
         style="stop-color:#666666;stop-opacity:1;"
         offset="1"
         id="stop3931" />
    </linearGradient>
    <filter
       inkscape:collect="always"
       id="filter3883"
       color-interpolation-filters="sRGB">
      <feGaussianBlur
         inkscape:collect="always"
         stdDeviation="0.094133587"
         id="feGaussianBlur3885" />
    </filter>
    <radialGradient
       inkscape:collect="always"
       xlink:href="#linearGradient4058"
       id="radialGradient4064"
       cx="12"
       cy="1040.0623"
       fx="12"
       fy="1040.0623"
       r="4.7942777"
       gradientTransform="matrix(1,0,0,0.99765468,0,2.4392818)"
       gradientUnits="userSpaceOnUse" />
    <filter
       inkscape:collect="always"
       id="filter4078"
       color-interpolation-filters="sRGB">
      <feGaussianBlur
         inkscape:collect="always"
         stdDeviation="0.047886555"
         id="feGaussianBlur4080" />
    </filter>
    <filter
       inkscape:collect="always"
       id="filter4086"
       color-interpolation-filters="sRGB">
      <feGaussianBlur
         inkscape:collect="always"
         stdDeviation="0.0474441"
         id="feGaussianBlur4088" />
    </filter>
    <radialGradient
       inkscape:collect="always"
       xlink:href="#linearGradient3927"
       id="radialGradient4092"
       cx="9.7669125"
       cy="11.581437"
       fx="9.7669125"
       fy="11.581437"
       r="9.6533585"
       gradientUnits="userSpaceOnUse" />
    <linearGradient
       inkscape:collect="always"
       xlink:href="#linearGradient4096"
       id="linearGradient4102"
       x1="9.7639294"
       y1="1.9250956"
       x2="9.7639294"
       y2="11.349236"
       gradientUnits="userSpaceOnUse"
       gradientTransform="matrix(1.0623201,0,0,1.0623201,-28.938087,-13.5532)" />
    <radialGradient
       inkscape:collect="always"
       xlink:href="#linearGradient3927"
       id="radialGradient4106"
       gradientUnits="userSpaceOnUse"
       cx="9.7669125"
       cy="11.581437"
       fx="9.7669125"
       fy="11.581437"
       r="9.6533585" />
    <linearGradient
       inkscape:collect="always"
       xlink:href="#linearGradient4096"
       id="linearGradient4109"
       gradientUnits="userSpaceOnUse"
       gradientTransform="matrix(1.0623201,0,0,1.0623201,-33.688087,1036.309)"
       x1="9.7639294"
       y1="1.9250956"
       x2="9.7639294"
       y2="26.70332" />
    <radialGradient
       inkscape:collect="always"
       xlink:href="#linearGradient3927"
       id="radialGradient4113"
       gradientUnits="userSpaceOnUse"
       cx="9.7669125"
       cy="11.581437"
       fx="9.7669125"
       fy="11.581437"
       r="9.6533585" />
    <radialGradient
       inkscape:collect="always"
       xlink:href="#linearGradient3927"
       id="radialGradient4128"
       gradientUnits="userSpaceOnUse"
       cx="9.7669125"
       cy="11.581437"
       fx="9.7669125"
       fy="11.581437"
       r="9.6533585"
       gradientTransform="matrix(1.0623201,0,0,1.0623201,-36.188087,37.8843)" />
    <radialGradient
       inkscape:collect="always"
       xlink:href="#linearGradient3927"
       id="radialGradient4132"
       gradientUnits="userSpaceOnUse"
       cx="9.7669125"
       cy="11.581437"
       fx="9.7669125"
       fy="11.581437"
       r="9.6533585" />
    <radialGradient
       inkscape:collect="always"
       xlink:href="#linearGradient3927"
       id="radialGradient4157"
       gradientUnits="userSpaceOnUse"
       cx="9.7669125"
       cy="11.581437"
       fx="9.7669125"
       fy="11.581437"
       r="9.6533585" />
    <radialGradient
       inkscape:collect="always"
       xlink:href="#linearGradient4058"
       id="radialGradient4159"
       gradientUnits="userSpaceOnUse"
       gradientTransform="matrix(1,0,0,0.99765468,0,2.4392818)"
       cx="12"
       cy="1040.0623"
       fx="12"
       fy="1040.0623"
       r="4.7942777" />
    <radialGradient
       inkscape:collect="always"
       xlink:href="#linearGradient4058"
       id="radialGradient4188"
       gradientUnits="userSpaceOnUse"
       gradientTransform="matrix(1,0,0,0.99765468,0,2.4392818)"
       cx="12"
       cy="1040.0623"
       fx="12"
       fy="1040.0623"
       r="4.7942777" />
    <radialGradient
       inkscape:collect="always"
       xlink:href="#linearGradient3927"
       id="radialGradient4190"
       gradientUnits="userSpaceOnUse"
       cx="9.7669125"
       cy="11.581437"
       fx="9.7669125"
       fy="11.581437"
       r="9.6533585" />
    <radialGradient
       inkscape:collect="always"
       xlink:href="#linearGradient4058"
       id="radialGradient4196"
       gradientUnits="userSpaceOnUse"
       gradientTransform="matrix(1,0,0,0.99765468,0,2.4392818)"
       cx="12"
       cy="1040.0623"
       fx="12"
       fy="1040.0623"
       r="4.7942777" />
    <radialGradient
       inkscape:collect="always"
       xlink:href="#linearGradient3927"
       id="radialGradient4218"
       gradientUnits="userSpaceOnUse"
       cx="9.7669125"
       cy="11.581437"
       fx="9.7669125"
       fy="11.581437"
       r="9.6533585" />
    <radialGradient
       inkscape:collect="always"
       xlink:href="#linearGradient4058"
       id="radialGradient4220"
       gradientUnits="userSpaceOnUse"
       gradientTransform="matrix(1,0,0,0.99765468,0,2.4392818)"
       cx="12"
       cy="1040.0623"
       fx="12"
       fy="1040.0623"
       r="4.7942777" />
    <radialGradient
       inkscape:collect="always"
       xlink:href="#linearGradient3927"
       id="radialGradient4238"
       gradientUnits="userSpaceOnUse"
       cx="9.7669125"
       cy="11.581437"
       fx="9.7669125"
       fy="11.581437"
       r="9.6533585"
       gradientTransform="matrix(2.2643425,0,0,-2.2643425,55.270928,1057.9121)" />
    <radialGradient
       inkscape:collect="always"
       xlink:href="#linearGradient4058"
       id="radialGradient4240"
       gradientUnits="userSpaceOnUse"
       gradientTransform="matrix(1,0,0,0.99765468,0,2.4392818)"
       cx="12"
       cy="1040.0623"
       fx="12"
       fy="1040.0623"
       r="4.7942777" />
    <radialGradient
       inkscape:collect="always"
       xlink:href="#linearGradient3927"
       id="radialGradient4262"
       gradientUnits="userSpaceOnUse"
       gradientTransform="matrix(2.2643425,0,0,-2.2643425,55.270928,1057.9121)"
       cx="9.7669125"
       cy="11.581437"
       fx="9.7669125"
       fy="11.581437"
       r="9.6533585" />
    <radialGradient
       inkscape:collect="always"
       xlink:href="#linearGradient4058"
       id="radialGradient4264"
       gradientUnits="userSpaceOnUse"
       gradientTransform="matrix(1,0,0,0.99765468,0,2.4392818)"
       cx="12"
       cy="1040.0623"
       fx="12"
       fy="1040.0623"
       r="4.7942777" />
    <radialGradient
       inkscape:collect="always"
       xlink:href="#linearGradient3927"
       id="radialGradient4274"
       gradientUnits="userSpaceOnUse"
       gradientTransform="matrix(2.2643425,0,0,-2.2643425,55.270928,1057.9121)"
       cx="9.7669125"
       cy="11.581437"
       fx="9.7669125"
       fy="11.581437"
       r="9.6533585" />
    <radialGradient
       inkscape:collect="always"
       xlink:href="#linearGradient4058"
       id="radialGradient4276"
       gradientUnits="userSpaceOnUse"
       gradientTransform="matrix(1,0,0,0.99765468,0,2.4392818)"
       cx="12"
       cy="1040.0623"
       fx="12"
       fy="1040.0623"
       r="4.7942777" />
    <radialGradient
       inkscape:collect="always"
       xlink:href="#linearGradient3927"
       id="radialGradient4284"
       gradientUnits="userSpaceOnUse"
       gradientTransform="matrix(2.0294293,0,0,-2.0294293,62.686627,1114.9208)"
       cx="9.7669125"
       cy="11.581437"
       fx="9.7669125"
       fy="11.581437"
       r="9.6533585" />
    <radialGradient
       inkscape:collect="always"
       xlink:href="#linearGradient3927"
       id="radialGradient4292"
       gradientUnits="userSpaceOnUse"
       gradientTransform="matrix(2.0294293,0,0,-2.0294293,62.686627,1114.9208)"
       cx="9.7669125"
       cy="11.581437"
       fx="9.7669125"
       fy="11.581437"
       r="9.6533585" />
    <radialGradient
       inkscape:collect="always"
       xlink:href="#linearGradient4058"
       id="radialGradient4294"
       gradientUnits="userSpaceOnUse"
       gradientTransform="matrix(1,0,0,0.99765468,0,2.4392818)"
       cx="12"
       cy="1040.0623"
       fx="12"
       fy="1040.0623"
       r="4.7942777" />
    <radialGradient
       inkscape:collect="always"
       xlink:href="#linearGradient3927"
       id="radialGradient4305"
       gradientUnits="userSpaceOnUse"
       gradientTransform="matrix(2.0294293,0,0,-2.0294293,62.686627,1114.9208)"
       cx="9.7669125"
       cy="11.581437"
       fx="9.7669125"
       fy="11.581437"
       r="9.6533585" />
    <radialGradient
       inkscape:collect="always"
       xlink:href="#linearGradient4058"
       id="radialGradient4307"
       gradientUnits="userSpaceOnUse"
       gradientTransform="matrix(1,0,0,0.99765468,0,2.4392818)"
       cx="12"
       cy="1040.0623"
       fx="12"
       fy="1040.0623"
       r="4.7942777" />
    <filter
       inkscape:collect="always"
       id="filter4329"
       x="-0.10410959"
       width="1.2082192"
       y="-0.10410959"
       height="1.2082192">
      <feGaussianBlur
         inkscape:collect="always"
         stdDeviation="0.81668409"
         id="feGaussianBlur4331" />
    </filter>
  </defs>
  <sodipodi:namedview
     id="base"
     pagecolor="#ffffff"
     bordercolor="#666666"
     borderopacity="1.0"
     inkscape:pageopacity="0.0"
     inkscape:pageshadow="2"
     inkscape:zoom="4"
     inkscape:cx="19.97478"
     inkscape:cy="-3.6785447"
     inkscape:document-units="px"
     inkscape:current-layer="layer1"
     showgrid="false"
     inkscape:window-width="1440"
     inkscape:window-height="845"
     inkscape:window-x="-2"
     inkscape:window-y="-3"
     inkscape:window-maximized="1" />
  <metadata
     id="metadata7">
    <rdf:RDF>
      <cc:Work
         rdf:about="">
        <dc:format>image/svg+xml</dc:format>
        <dc:type
           rdf:resource="http://purl.org/dc/dcmitype/StillImage" />
        <dc:title></dc:title>
      </cc:Work>
    </rdf:RDF>
  </metadata>
  <g
     inkscape:label="Layer 1"
     inkscape:groupmode="layer"
     id="layer1"
     transform="translate(0,-1004.3622)">
    <path
       transform="matrix(1.9652922,0,0,1.9652922,4.8051631,1007.2492)"
       d="m 19.180271,11.581437 a 9.4133587,9.4133587 0 1 1 -18.82671723,0 9.4133587,9.4133587 0 1 1 18.82671723,0 z"
       sodipodi:ry="9.4133587"
       sodipodi:rx="9.4133587"
       sodipodi:cy="11.581437"
       sodipodi:cx="9.7669125"
       id="path3817"
       style="fill:#000000;fill-opacity:1;stroke:none;filter:url(#filter4329)"
       sodipodi:type="arc" />
    <g
       id="g4296"
       transform="matrix(0.89999994,0,0,0.89999994,-33.869892,48.950706)">
      <g
         transform="translate(-18.208,-3.1819805)"
         id="g4287">
        <path
           id="path4090"
           d="m 101.61163,1091.4171 c 0,-10.5507 -8.553037,-19.1038 -19.103745,-19.1038 -10.550708,0 -19.103746,8.5531 -19.103746,19.1038 0,10.5507 8.553038,19.1037 19.103746,19.1037 10.550708,0 19.103745,-8.553 19.103745,-19.1037 z"
           style="fill:url(#radialGradient4305);fill-opacity:1;stroke:none"
           inkscape:connector-curvature="0" />
        <path
           style="opacity:0.1906977;fill:#ffffff;fill-opacity:1;stroke:none;filter:url(#filter3883)"
           d="m 1.0602683,1060.0434 c 1.035534,0 2.029361,0.1453 2.96875,0.4375 -0.939389,-0.2922 -1.933216,-0.4375 -2.96875,-0.4375 z m 0,0 c -1.03553398,0 -2.02936096,0.1453 -2.96875,0.4375 0.93938904,-0.2922 1.93321602,-0.4375 2.96875,-0.4375 z m -3.90625,0.7812 c -0.897288,0.3796 -1.727926,0.8887 -2.46875,1.5 0.740824,-0.6113 1.571462,-1.1204 2.46875,-1.5 z m -2.46875,1.5 c -0.252797,0.2087 -0.456455,0.4242 -0.6875,0.6563 0.226206,-0.2262 0.440559,-0.4525 0.6875,-0.6563 z m 10.28125,-1.5 c 0.897288,0.3796 1.727926,0.8887 2.46875,1.5 -0.740824,-0.6113 -1.571462,-1.1204 -2.46875,-1.5 z m 2.46875,1.5 c 0.246941,0.2038 0.461294,0.4301 0.6875,0.6563 -0.231045,-0.2321 -0.434703,-0.4476 -0.6875,-0.6563 z m -7.12499998,6.3438 c -3.65953002,0.2675 -6.74065002,2.5326 -8.25000002,5.6875 1.609973,3.3652 5.020591,5.6875 9,5.6875 3.979409,0 7.390027,-2.3223 8.9999997,-5.6875 -1.6099727,-3.3652 -5.0205907,-5.6875 -8.9999997,-5.6875 -0.24871298,0 -0.50603098,-0.018 -0.74999998,0 z m 9.74999968,5.6875 c 0.313197,-0.6546 0.553251,-1.3698 0.71875,-2.0938 -0.171945,0.7221 -0.406531,1.4412 -0.71875,2.0938 z m -17.9999997,0 c -0.312219,-0.6526 -0.546805,-1.3717 -0.71875,-2.0938 0.165499,0.724 0.405553,1.4392 0.71875,2.0938 z"
           id="path4111"
           inkscape:connector-curvature="0"
           transform="matrix(1.9103745,0,0,-1.9103745,80.482375,3135.136)" />
        <path
           inkscape:connector-curvature="0"
           style="fill:none;stroke:#000000;stroke-width:1.79251087;stroke-miterlimit:4;stroke-dasharray:none"
           d="m 101.61163,1091.4171 c 0,-10.5507 -8.553039,-19.1038 -19.103747,-19.1038 -10.550707,0 -19.103745,8.5531 -19.103745,19.1038 0,10.5506 8.553038,19.1037 19.103745,19.1037 10.550708,0 19.103747,-8.5531 19.103747,-19.1037 z"
           id="path4250" />
      </g>
      <g
         transform="matrix(0.89625543,0,0,0.89625543,42.789754,166.88959)"
         id="g4192"
         style="stroke:none">
        <path
           inkscape:connector-curvature="0"
           id="path3981"
           d="m 8.1218142,1035.629 c -0.7362827,0.099 -1.0897748,1.0939 -0.5807015,1.635 1.0142497,1.03 2.0333362,2.0554 3.0494523,3.0837 -1.037218,1.036 -2.0723646,2.075 -3.1109713,3.109 -0.5003161,0.5491 -0.1308805,1.5385 0.6068927,1.6254 0.446889,0.097 0.8205855,-0.1951 1.0933088,-0.5111 0.9390068,-0.939 1.8780138,-1.878 2.8170198,-2.817 1.035969,1.0372 2.074943,2.0723 3.108917,3.1109 0.549105,0.5004 1.538562,0.131 1.625437,-0.6068 0.09665,-0.4469 -0.195082,-0.8206 -0.511082,-1.0933 -0.939008,-0.9391 -1.878015,-1.8781 -2.817022,-2.8171 1.011686,-1.025 2.028726,-2.0448 3.037044,-3.073 0.50547,-0.5444 0.145378,-1.5373 -0.591543,-1.6311 -0.49095,-0.1112 -0.863234,0.2565 -1.167497,0.5824 -0.894751,0.8947 -1.789503,1.7895 -2.684254,2.6842 -1.01419,-1.0121 -2.0241986,-2.0284 -3.0410217,-3.0378 -0.2264623,-0.2048 -0.5378606,-0.2647 -0.8339791,-0.2434 z"
           style="font-size:medium;font-style:normal;font-variant:normal;font-weight:normal;font-stretch:normal;text-indent:0;text-align:start;text-decoration:none;line-height:normal;letter-spacing:normal;word-spacing:normal;text-transform:none;direction:ltr;block-progression:tb;writing-mode:lr-tb;text-anchor:start;baseline-shift:baseline;color:#000000;fill:#ffffff;fill-opacity:1;fill-rule:nonzero;stroke:none;stroke-width:2;marker:none;visibility:visible;display:inline;overflow:visible;filter:url(#filter4086);enable-background:accumulate;font-family:Sans;-inkscape-font-specification:Sans"
           transform="matrix(2.1315068,0,0,2.1315068,-1.5780819,-1189.1768)" />
        <path
           style="font-size:medium;font-style:normal;font-variant:normal;font-weight:normal;font-stretch:normal;text-indent:0;text-align:start;text-decoration:none;line-height:normal;letter-spacing:normal;word-spacing:normal;text-transform:none;direction:ltr;block-progression:tb;writing-mode:lr-tb;text-anchor:start;baseline-shift:baseline;color:#000000;fill:url(#radialGradient4307);fill-opacity:1;fill-rule:nonzero;stroke:none;stroke-width:2;marker:none;visibility:visible;display:inline;overflow:visible;filter:url(#filter4078);enable-background:accumulate;font-family:Sans;-inkscape-font-specification:Sans"
           d="m 8.0856459,1035.2849 c -0.743149,0.1 -1.099938,1.1041 -0.586117,1.6502 1.023709,1.0396 2.052299,2.0746 3.0778931,3.1125 -1.0468931,1.0456 -2.0916931,2.0943 -3.1399861,3.138 -0.504982,0.5542 -0.132101,1.5528 0.612553,1.6405 0.451057,0.098 0.828238,-0.1969 1.103505,-0.5158 0.9477651,-0.9478 1.8955291,-1.8956 2.8432921,-2.8433 1.045631,1.0469 2.094294,2.0916 3.137911,3.1399 0.554226,0.5051 1.55291,0.1322 1.640596,-0.6125 0.09755,-0.451 -0.196902,-0.8282 -0.515849,-1.1035 -0.947765,-0.9478 -1.895529,-1.8956 -2.843293,-2.8433 1.021121,-1.0346 2.047646,-2.0639 3.065367,-3.1017 0.510184,-0.5495 0.146734,-1.5516 -0.597059,-1.6463 -0.495529,-0.1122 -0.871285,0.2589 -1.178385,0.5878 -0.903096,0.9031 -1.806192,1.8062 -2.709288,2.7093 -1.023648,-1.0216 -2.0430767,-2.0474 -3.0693831,-3.0662 -0.228574,-0.2067 -0.542877,-0.2671 -0.841757,-0.2456 z"
           id="path3997"
           inkscape:connector-curvature="0"
           transform="matrix(2.1315068,0,0,2.1315068,-1.5780821,-1189.1768)" />
      </g>
    </g>
  </g>
</svg>
